<?xml version="1.0" encoding="UTF-8" standalone="no"?>
<!-- Created with Inkscape (http://www.inkscape.org/) -->

<svg
   width="200mm"
   height="200mm"
   viewBox="0 0 200 200"
   version="1.1"
   id="svg1"
   inkscape:version="1.4.2 (f4327f4, 2025-05-13)"
   sodipodi:docname="steambuds logo for temp.svg"
   xml:space="preserve"
   xmlns:inkscape="http://www.inkscape.org/namespaces/inkscape"
   xmlns:sodipodi="http://sodipodi.sourceforge.net/DTD/sodipodi-0.dtd"
   xmlns="http://www.w3.org/2000/svg"
   xmlns:svg="http://www.w3.org/2000/svg"><sodipodi:namedview
     id="namedview1"
     pagecolor="#ffffff"
     bordercolor="#000000"
     borderopacity="0.25"
     inkscape:showpageshadow="2"
     inkscape:pageopacity="0.0"
     inkscape:pagecheckerboard="0"
     inkscape:deskcolor="#d1d1d1"
     inkscape:document-units="mm"
     inkscape:zoom="0.65477694"
     inkscape:cx="252.75783"
     inkscape:cy="489.47967"
     inkscape:window-width="1920"
     inkscape:window-height="974"
     inkscape:window-x="-11"
     inkscape:window-y="-11"
     inkscape:window-maximized="1"
     inkscape:current-layer="layer1" /><defs
     id="defs1" /><g
     inkscape:label="Layer 1"
     inkscape:groupmode="layer"
     id="layer1"><g
       id="g2"
       transform="matrix(1.4341912,0,0,1.4341912,-52.908571,-105.91718)"><path
         style="display:inline;fill:#e856ae;fill-opacity:1;stroke-width:0.316187"
         d="m 136.87884,168.60957 c 10.8072,0.61027 18.27198,-3.20172 21.68251,-12.37781 -4.03721,1.17555 -8.38344,2.31165 -17.67038,2.81702 -1.54534,5.12789 -2.80429,7.58284 -4.01213,9.56079 z"
         id="path7"
         sodipodi:nodetypes="cccc" /><path
         style="display:inline;fill:#795cc8;fill-opacity:1;stroke-width:0.316187"
         d="m 77.294613,168.78029 c -10.8072,0.61027 -18.27198,-3.20172 -21.6825,-12.37781 4.03721,1.17555 8.38344,2.31165 17.67039,2.81702 1.54532,5.1279 2.80429,7.58284 4.01211,9.56079 z"
         id="path8"
         sodipodi:nodetypes="cccc" /><path
         style="display:inline;fill:#fc208e;fill-opacity:1;stroke-width:0.316187"
         d="m 107.00137,127.72011 c 3.40362,-4.5589 7.33862,-8.38718 11.65221,-11.69489 -2.59392,-4.73654 -6.48316,-9.13516 -11.6949,-13.18878 -4.09673,3.36363 -8.148627,7.08597 -11.908297,13.14609 5.148487,3.91253 8.962267,7.82505 11.950987,11.73758 z"
         id="path13"
         sodipodi:nodetypes="ccccc" /><path
         style="display:inline;fill:#a41ae6;fill-opacity:1;stroke:none;stroke-width:0.316187;stroke-opacity:1"
         d="m 108.43533,184.72099 c 6.51494,-2.00055 12.95893,-2.06248 23.52901,-13.42673 5.24837,-8.71825 7.48453,-18.05857 8.45712,-27.2269 2.34896,-8.77115 6.50176,-13.67689 12.03635,-15.62166 5.38186,-2.31078 11.06172,-3.61399 15.81373,-8.02423 2.13086,-1.86961 3.44356,-4.366 4.09749,-7.76815 0.18106,-1.6585 0.16276,-3.55907 -0.55487,-5.12185 -1.64757,1.71359 -3.25592,3.44896 -5.39929,4.8871 -5.00742,3.01033 -10.43414,5.28875 -15.40825,8.68582 -3.835,2.16024 -6.44528,4.34269 -9.47543,6.65841 -3.80589,2.56369 -6.77827,6.12758 -10.07297,9.3047 l -3.75603,4.35357 c -3.37839,3.49087 -6.44158,8.30555 -8.40838,10.96931 -2.85002,4.65013 -2.47538,4.05422 -5.89013,10.32906 -1.53167,3.84617 -1.81181,4.26385 -2.90452,7.36892 -0.85642,2.59793 -1.20859,4.39015 -1.72711,8.05441 -0.37098,2.84026 0.0425,4.34095 -0.33672,6.57822 z"
         id="path2"
         sodipodi:nodetypes="ccccccccccccccccc" /><path
         style="display:inline;fill:#e41aa5;fill-opacity:1;stroke-width:0.316187"
         d="m 108.42455,185.34685 c 14.46171,-2.36429 20.50952,-8.79982 25.11043,-15.93547 5.00307,-8.38874 4.7626,-12.58263 6.03616,-17.98776 0.95086,-9.83608 3.59243,-16.85432 8.40505,-20.25412 -22.4625,12.90432 -40.08342,28.49843 -39.55164,54.17735 z"
         id="path14"
         sodipodi:nodetypes="ccccc" /><path
         style="display:inline;fill:#7731ff;fill-opacity:1;stroke:none;stroke-width:0.316187;stroke-opacity:1"
         d="m 105.46914,184.67572 c -6.777067,-1.4763 -14.282207,-1.33239 -24.328797,-13.74363 -5.24837,-8.71824 -6.88091,-17.81712 -7.8535,-26.98545 -2.34896,-8.77115 -6.50177,-13.67689 -12.03636,-15.62166 -5.38185,-2.31079 -11.06171,-3.61399 -15.81372,-8.02423 -2.13086,-1.86961 -3.44356,-4.366 -4.09749,-7.76815 -0.18106,-1.6585 -0.16276,-3.55908 0.55487,-5.12185 1.64756,1.71359 3.25592,3.44895 5.39929,4.88709 5.00741,3.01034 10.43414,5.28875 15.40825,8.68583 3.83499,2.16023 6.44528,4.34268 9.47543,6.6584 3.80589,2.5637 6.77827,6.12759 10.07297,9.3047 l 3.75602,4.35357 c 3.3784,3.49088 5.75867,7.28118 8.6218,10.92663 1.61224,2.38799 2.9022,3.75545 5.890127,10.4998 1.23289,2.35229 2.30935,4.7437 2.90237,7.25596 0.85643,2.59793 1.50428,5.2654 1.87802,8.02423 0.45561,2.10901 0.24996,4.40694 0.17072,6.66876 z"
         id="path3"
         sodipodi:nodetypes="ccccccccccccccccc" /><path
         style="display:inline;fill:#2d81ff;fill-opacity:1;stroke-width:0.316187"
         d="m 105.46989,185.34685 c -14.461697,-2.36429 -20.509517,-8.79982 -25.110417,-15.93547 -5.00307,-8.38874 -4.7626,-12.58263 -6.03617,-17.98776 -0.95085,-9.83608 -3.59242,-16.85432 -8.40505,-20.25412 22.4625,12.90432 40.083417,28.49843 39.551637,54.17735 z"
         id="path15"
         sodipodi:nodetypes="ccccc" /><g
         id="g31"
         transform="matrix(1.1950381,0,0,1.1950381,-10.246383,-0.1128145)"
         style="fill:#a61ae4;fill-opacity:1"><path
           style="display:inline;fill:#a61ae4;fill-opacity:1;stroke-width:0.264583"
           d="m 69.175883,130.76224 c -12.67731,-1.02005 -26.15205,-0.78172 -22.82856,-27.0516 2.07063,1.31707 3.59095,2.51943 9.01832,4.54488 2.51879,0.93999 5.13888,1.81156 7.35751,3.53589 5.62273,4.97305 4.94219,11.56792 6.45273,18.97083 z"
           id="path10"
           sodipodi:nodetypes="ccscc" /><path
           style="display:inline;fill:#a61ae4;fill-opacity:1;stroke-width:0.264583"
           d="m 69.377923,130.76224 c -12.67731,-1.02005 -26.15205,-0.78172 -22.82856,-27.0516 2.07063,1.31707 3.59095,2.51943 9.01832,4.54488 2.51879,0.93999 5.13888,1.81156 7.35751,3.53589 5.62273,4.97305 4.94219,11.56792 6.45273,18.97083 z"
           id="path29"
           sodipodi:nodetypes="ccscc" /></g><g
         id="g32"
         transform="matrix(-1.1950381,0,0,1.1950381,224.4827,-0.2542508)"
         style="fill:#fb1b8d;fill-opacity:1"><path
           style="display:inline;fill:#fb1b8d;fill-opacity:1;stroke-width:0.264583"
           d="m 69.175883,130.76224 c -12.67731,-1.02005 -26.15205,-0.78172 -22.82856,-27.0516 2.07063,1.31707 3.59095,2.51943 9.01832,4.54488 2.51879,0.93999 5.13888,1.81156 7.35751,3.53589 5.62273,4.97305 4.94219,11.56792 6.45273,18.97083 z"
           id="path31"
           sodipodi:nodetypes="ccscc" /><path
           style="display:inline;fill:#fb1b8d;fill-opacity:1;stroke-width:0.264583"
           d="m 69.377923,130.76224 c -12.67731,-1.02005 -26.15205,-0.78172 -22.82856,-27.0516 2.07063,1.31707 3.59095,2.51943 9.01832,4.54488 2.51879,0.93999 5.13888,1.81156 7.35751,3.53589 5.62273,4.97305 4.94219,11.56792 6.45273,18.97083 z"
           id="path32"
           sodipodi:nodetypes="ccscc" /></g><g
         id="g38"
         transform="matrix(1.1950381,0,0,1.1950381,-10.246383,-0.1128145)"
         style="fill:#6068d3;fill-opacity:1"><path
           style="display:inline;fill:#6068d3;fill-opacity:1;fill-rule:nonzero;stroke-width:0.264583"
           d="m 97.888774,143.12066 c 1.432081,-5.27581 4.225646,-11.34944 7.778576,-16.49158 -4.19059,-15.53717 -14.01487,-25.70892 -26.669392,-33.185203 -4.38656,5.499928 -5.167636,9.530953 -6.010714,13.587243 13.381769,12.69843 21.756386,24.73803 24.90153,36.08954 z"
           id="path12"
           sodipodi:nodetypes="ccccc" /><path
           style="display:inline;fill:#6068d3;fill-opacity:1;fill-rule:nonzero;stroke-width:0.264583"
           d="m 97.888774,143.12066 c 1.493845,-5.4345 3.832756,-10.68835 7.778576,-16.49158 -4.19059,-15.53717 -14.01487,-25.70892 -26.669392,-33.185203 -4.38656,5.499928 -5.167636,9.530953 -6.010714,13.587243 13.381769,12.69843 21.756386,24.73803 24.90153,36.08954 z"
           id="path33"
           sodipodi:nodetypes="ccccc" /></g><g
         id="g39"
         transform="matrix(1.1950381,0,0,1.1950381,-10.246383,-0.1128145)"
         style="display:inline;fill:#c74eb1;fill-opacity:1"><path
           style="display:inline;fill:#c74eb1;fill-opacity:1;stroke-width:0.264583"
           d="m 107.58673,124.40663 c 4.9223,-6.94979 10.13148,-12.36956 15.45613,-17.17347 -1.21425,-5.09706 -3.28128,-9.48346 -6.11174,-13.233672 -8.55731,4.780355 -13.08622,9.804852 -17.274488,14.850002 3.810668,5.35247 5.978598,10.47026 7.930098,15.55714 z"
           id="path11"
           sodipodi:nodetypes="ccccc" /><path
           style="display:inline;fill:#c74eb1;fill-opacity:1;stroke-width:0.264583"
           d="m 107.58673,124.40663 c 4.9223,-6.94979 10.13148,-12.36956 15.45613,-17.17347 -1.21425,-5.09706 -3.28128,-9.48346 -6.11174,-13.233672 -8.55731,4.780355 -13.08622,9.804852 -17.274488,14.850002 3.810668,5.35247 5.978598,10.47026 7.930098,15.55714 z"
           id="path34"
           sodipodi:nodetypes="ccccc" /></g><text
         xml:space="preserve"
         style="font-style:normal;font-variant:normal;font-weight:normal;font-stretch:normal;font-size:11.8043px;font-family:times;-inkscape-font-specification:'times, Normal';font-variant-ligatures:normal;font-variant-caps:normal;font-variant-numeric:normal;font-variant-east-asian:normal;text-align:start;writing-mode:lr-tb;direction:ltr;text-anchor:start;display:inline;fill:#000000;fill-opacity:1;fill-rule:nonzero;stroke-width:0.316187"
         x="89.459045"
         y="132.71391"
         id="text39"><tspan
           sodipodi:role="line"
           id="tspan39"
           style="font-style:normal;font-variant:normal;font-weight:normal;font-stretch:normal;font-size:11.8043px;font-family:times;-inkscape-font-specification:'times, Normal';font-variant-ligatures:normal;font-variant-caps:normal;font-variant-numeric:normal;font-variant-east-asian:normal;fill:#000000;stroke-width:0.316187"
           x="89.459045"
           y="132.71391">S</tspan></text><text
         xml:space="preserve"
         style="font-style:normal;font-variant:normal;font-weight:normal;font-stretch:normal;font-size:11.8043px;font-family:'Times New Roman';-inkscape-font-specification:'Times New Roman, Normal';font-variant-ligatures:normal;font-variant-caps:normal;font-variant-numeric:normal;font-variant-east-asian:normal;text-align:start;writing-mode:lr-tb;direction:ltr;text-anchor:start;display:inline;fill:#000000;fill-opacity:1;fill-rule:nonzero;stroke-width:0.316187"
         x="121.55598"
         y="131.00664"
         id="text40"><tspan
           sodipodi:role="line"
           id="tspan40"
           style="font-style:normal;font-variant:normal;font-weight:normal;font-stretch:normal;font-size:11.8043px;font-family:'Times New Roman';-inkscape-font-specification:'Times New Roman, Normal';font-variant-ligatures:normal;font-variant-caps:normal;font-variant-numeric:normal;font-variant-east-asian:normal;fill:#000000;stroke-width:0.316187"
           x="121.55598"
           y="131.00664">T</tspan></text><text
         xml:space="preserve"
         style="font-style:normal;font-variant:normal;font-weight:normal;font-stretch:normal;font-size:11.8043px;font-family:'Times New Roman';-inkscape-font-specification:'Times New Roman, Normal';font-variant-ligatures:normal;font-variant-caps:normal;font-variant-numeric:normal;font-variant-east-asian:normal;text-align:start;writing-mode:lr-tb;direction:ltr;text-anchor:start;display:inline;fill:#28220b;fill-opacity:1;fill-rule:nonzero;stroke-width:0.316187"
         x="80.239685"
         y="155.59152"
         id="text41"><tspan
           sodipodi:role="line"
           id="tspan41"
           style="font-style:normal;font-variant:normal;font-weight:normal;font-stretch:normal;font-size:11.8043px;font-family:'Times New Roman';-inkscape-font-specification:'Times New Roman, Normal';font-variant-ligatures:normal;font-variant-caps:normal;font-variant-numeric:normal;font-variant-east-asian:normal;fill:#28220b;stroke-width:0.316187"
           x="80.239685"
           y="155.59152">E</tspan></text><text
         xml:space="preserve"
         style="font-style:normal;font-variant:normal;font-weight:normal;font-stretch:normal;font-size:11.8043px;font-family:'Times New Roman';-inkscape-font-specification:'Times New Roman, Normal';font-variant-ligatures:normal;font-variant-caps:normal;font-variant-numeric:normal;font-variant-east-asian:normal;text-align:start;writing-mode:lr-tb;direction:ltr;text-anchor:start;display:inline;fill:#000000;fill-opacity:1;fill-rule:nonzero;stroke-width:0.316187"
         x="103.45874"
         y="147.73801"
         id="text42"><tspan
           sodipodi:role="line"
           id="tspan42"
           style="font-style:normal;font-variant:normal;font-weight:normal;font-stretch:normal;font-size:11.8043px;font-family:'Times New Roman';-inkscape-font-specification:'Times New Roman, Normal';font-variant-ligatures:normal;font-variant-caps:normal;font-variant-numeric:normal;font-variant-east-asian:normal;fill:#000000;stroke-width:0.316187"
           x="103.45874"
           y="147.73801">A</tspan></text><text
         xml:space="preserve"
         style="font-style:normal;font-variant:normal;font-weight:normal;font-stretch:normal;font-size:11.8043px;font-family:'Times New Roman';-inkscape-font-specification:'Times New Roman, Normal';font-variant-ligatures:normal;font-variant-caps:normal;font-variant-numeric:normal;font-variant-east-asian:normal;text-align:start;writing-mode:lr-tb;direction:ltr;text-anchor:start;display:inline;fill:#000000;fill-opacity:1;fill-rule:nonzero;stroke-width:0.316187"
         x="126.91823"
         y="155.59152"
         id="text43"><tspan
           sodipodi:role="line"
           id="tspan43"
           style="font-style:normal;font-variant:normal;font-weight:normal;font-stretch:normal;font-size:11.8043px;font-family:'Times New Roman';-inkscape-font-specification:'Times New Roman, Normal';font-variant-ligatures:normal;font-variant-caps:normal;font-variant-numeric:normal;font-variant-east-asian:normal;fill:#000000;stroke-width:0.316187"
           x="126.91823"
           y="155.59152">M</tspan></text></g></g></svg>
