<?xml version="1.0" encoding="UTF-8" standalone="no"?>
<!-- Created with Inkscape (http://www.inkscape.org/) -->

<svg
   width="755.90552"
   height="472.44095"
   viewBox="0 0 200 125"
   version="1.1"
   id="svg1"
   xml:space="preserve"
   xmlns="http://www.w3.org/2000/svg"
   xmlns:svg="http://www.w3.org/2000/svg"><defs
     id="defs1" /><g
     id="layer1"><path
       style="display:inline;fill:#e856ae;fill-opacity:1;stroke-width:0.453473"
       d="m 142.87269,97.888692 c 15.49959,0.875243 26.20551,-4.591879 31.09686,-17.752147 -5.79013,1.685964 -12.02345,3.315348 -25.3427,4.040146 -2.21631,7.354374 -4.02189,10.875242 -5.75416,13.712001 z"
       id="path7" /><path
       style="display:inline;fill:#795cc8;fill-opacity:1;stroke-width:0.453473"
       d="M 57.417516,98.133537 C 41.917925,99.008781 31.212003,93.541658 26.320665,80.38139 c 5.790131,1.685964 12.023456,3.315349 25.342718,4.040146 2.216284,7.354389 4.021888,10.875242 5.754133,13.712001 z"
       id="path8" /><path
       style="display:inline;fill:#e41aa5;fill-opacity:1;stroke-width:0.453473"
       d="M 100.02269,39.245388 C 104.90413,32.707054 110.54767,27.216568 116.73418,22.47268 113.01401,15.679576 107.43609,9.3711134 99.96146,3.5574473 94.085966,8.3815358 88.27477,13.720083 82.882685,22.411454 90.2666,28.02277 95.736289,33.634072 100.02269,39.245388 Z"
       id="path13" /><path
       style="display:inline;fill:#a41ae6;fill-opacity:1;stroke:none;stroke-width:0.453473;stroke-opacity:1"
       d="m 102.07926,120.99555 c 9.34367,-2.86917 18.58558,-2.95799 33.7451,-19.2565 7.52716,-12.503637 10.73424,-25.899442 12.12912,-39.04858 3.36886,-12.579506 9.32477,-19.615275 17.26243,-22.404447 7.71862,-3.314101 15.86462,-5.183153 22.67991,-11.50828 3.05606,-2.681379 4.93873,-6.261679 5.87659,-11.141013 0.25967,-2.378606 0.23343,-5.104387 -0.79579,-7.345712 -2.36293,2.457616 -4.66961,4.946468 -7.74362,7.009036 -7.18159,4.317389 -14.96455,7.585079 -22.09837,12.457126 -5.50013,3.098198 -9.24377,6.228248 -13.58958,9.549433 -5.45837,3.676822 -9.72134,8.788122 -14.44657,13.344719 l -5.38686,6.243852 c -4.84526,5.006575 -9.23846,11.911747 -12.05923,15.732088 -4.08747,6.669175 -3.55016,5.814527 -8.44757,14.813847 -2.19671,5.516143 -2.59848,6.115176 -4.16564,10.568441 -1.22827,3.72593 -1.73334,6.29631 -2.477,11.55156 -0.53206,4.07348 0.061,6.22576 -0.48292,9.43443 z"
       id="path2" /><path
       style="display:inline;fill:#e41aa5;fill-opacity:1;stroke-width:0.453473"
       d="m 102.0638,121.89315 c 20.74085,-3.39084 29.41457,-12.62062 36.01316,-22.85451 7.17535,-12.031057 6.83047,-18.045897 8.657,-25.797887 1.36372,-14.106819 5.15223,-24.172317 12.05445,-29.04828 -32.21552,18.507262 -57.48729,40.872197 -56.72461,77.700677 z"
       id="path14" /><path
       style="display:inline;fill:#7731ff;fill-opacity:1;stroke:none;stroke-width:0.453473;stroke-opacity:1"
       d="M 97.825174,120.93062 C 88.105565,118.81333 77.341759,119.01972 62.933028,101.21963 55.405862,88.716006 53.064487,75.666473 51.669607,62.517334 48.30075,49.937828 42.344826,42.902059 34.407166,40.112887 26.688564,36.798772 18.542559,34.929734 11.727268,28.604607 8.671207,25.923229 6.7885442,22.342928 5.8506836,17.463595 5.5910089,15.084989 5.6172546,12.359193 6.6464732,10.117882 c 2.3629161,2.457616 4.6696118,4.946454 7.7436138,7.009022 7.181584,4.317403 14.964552,7.585079 22.098377,12.457141 5.500109,3.098183 9.243764,6.228233 13.589578,9.549419 5.458374,3.676836 9.721335,8.788135 14.446565,13.344718 l 5.386851,6.243852 c 4.845272,5.00659 8.259034,10.442604 12.36531,15.670877 2.31226,3.424834 4.162309,5.386033 8.447568,15.058721 1.7682,3.373633 3.31205,6.803372 4.162554,10.406434 1.228284,3.725924 2.157425,7.551594 2.693439,11.508284 0.653432,3.02472 0.358491,6.32039 0.244845,9.56427 z"
       id="path3" /><path
       style="display:inline;fill:#2d81ff;fill-opacity:1;stroke-width:0.453473"
       d="M 97.82625,121.89315 C 77.085412,118.50231 68.411681,109.27253 61.813111,99.03864 54.637752,87.007583 54.982632,80.992743 53.156089,73.240753 51.792388,59.133934 48.003872,49.068436 41.10164,44.192473 73.31716,62.699735 98.588924,85.06467 97.82625,121.89315 Z"
       id="path15" /><g
       id="g31"
       transform="matrix(1.7139131,0,0,1.7139131,-68.13301,-144.09147)"
       style="fill:#a61ae4;fill-opacity:1"><path
         style="display:inline;fill:#a61ae4;fill-opacity:1;stroke-width:0.264583"
         d="m 69.377923,130.76224 c -12.67731,-1.02005 -26.15205,-0.78172 -22.82856,-27.0516 2.07063,1.31707 3.59095,2.51943 9.01832,4.54488 2.51879,0.93999 5.13888,1.81156 7.35751,3.53589 5.62273,4.97305 4.94219,11.56792 6.45273,18.97083 z"
         id="path29" /><path
         style="display:inline;fill:#a61ae4;fill-opacity:1;stroke-width:0.264583"
         d="m 69.175883,130.76224 c -12.67731,-1.02005 -26.15205,-0.78172 -22.82856,-27.0516 2.07063,1.31707 3.59095,2.51943 9.01832,4.54488 2.51879,0.93999 5.13888,1.81156 7.35751,3.53589 5.62273,4.97305 4.94219,11.56792 6.45273,18.97083 z"
         id="path10" /></g><g
       id="g32"
       transform="matrix(-1.7139131,0,0,1.7139131,268.51337,-144.29431)"
       style="fill:#e41aa5;fill-opacity:1"><path
         style="display:inline;fill:#e41aa5;fill-opacity:1;stroke-width:0.264583"
         d="m 69.377923,130.76224 c -12.67731,-1.02005 -26.15205,-0.78172 -22.82856,-27.0516 2.07063,1.31707 3.59095,2.51943 9.01832,4.54488 2.51879,0.93999 5.13888,1.81156 7.35751,3.53589 5.62273,4.97305 4.94219,11.56792 6.45273,18.97083 z"
         id="path32"
         transform="translate(-2.7957465e-6)" /><path
         style="display:inline;fill:#e41aa5;fill-opacity:1;stroke-width:0.264583"
         d="m 69.175883,130.76224 c -12.67731,-1.02005 -26.15205,-0.78172 -22.82856,-27.0516 2.07063,1.31707 3.59095,2.51943 9.01832,4.54488 2.51879,0.93999 5.13888,1.81156 7.35751,3.53589 5.62273,4.97305 4.94219,11.56792 6.45273,18.97083 z"
         id="path31" /></g><g
       id="g38"
       transform="matrix(1.7139131,0,0,1.7139131,-68.13301,-144.09147)"
       style="fill:#6068d3;fill-opacity:1"><path
         style="display:inline;fill:#6068d3;fill-opacity:1;fill-rule:nonzero;stroke-width:0.264583"
         d="m 97.888774,143.12066 c 1.493845,-5.4345 3.832756,-10.68835 7.778576,-16.49158 -4.19059,-15.53717 -14.01487,-25.70892 -26.669392,-33.185203 -4.38656,5.499928 -5.167636,9.530953 -6.010714,13.587243 13.381769,12.69843 21.756386,24.73803 24.90153,36.08954 z"
         id="path33" /><path
         style="display:inline;fill:#6068d3;fill-opacity:1;fill-rule:nonzero;stroke-width:0.264583"
         d="m 97.888774,143.12066 c 1.432081,-5.27581 4.225646,-11.34944 7.778576,-16.49158 -4.19059,-15.53717 -14.01487,-25.70892 -26.669392,-33.185203 -4.38656,5.499928 -5.167636,9.530953 -6.010714,13.587243 13.381769,12.69843 21.756386,24.73803 24.90153,36.08954 z"
         id="path12" /></g><g
       id="g39"
       transform="matrix(1.7139131,0,0,1.7139131,-68.13301,-144.09147)"
       style="display:inline;fill:#c74eb1;fill-opacity:1"><path
         style="display:inline;fill:#c74eb1;fill-opacity:1;stroke-width:0.264583"
         d="m 107.58673,124.40663 c 4.9223,-6.94979 10.13148,-12.36956 15.45613,-17.17347 -1.21425,-5.09706 -3.28128,-9.48346 -6.11174,-13.233672 -8.55731,4.780355 -13.08622,9.804852 -17.274488,14.850002 3.810668,5.35247 5.978598,10.47026 7.930098,15.55714 z"
         id="path34" /><path
         style="display:inline;fill:#c74eb1;fill-opacity:1;stroke-width:0.264583"
         d="m 107.58673,124.40663 c 4.9223,-6.94979 10.13148,-12.36956 15.45613,-17.17347 -1.21425,-5.09706 -3.28128,-9.48346 -6.11174,-13.233672 -8.55731,4.780355 -13.08622,9.804852 -17.274488,14.850002 3.810668,5.35247 5.978598,10.47026 7.930098,15.55714 z"
         id="path11" /></g><text
       xml:space="preserve"
       style="font-style:normal;font-variant:normal;font-weight:normal;font-stretch:normal;font-size:16.9296px;font-family:times;-inkscape-font-specification:'times, Normal';font-variant-ligatures:normal;font-variant-caps:normal;font-variant-numeric:normal;font-variant-east-asian:normal;text-align:start;writing-mode:lr-tb;direction:ltr;text-anchor:start;display:inline;fill:#000000;fill-opacity:1;fill-rule:nonzero;stroke-width:0.453473"
       x="74.86364"
       y="46.407455"
       id="text39"><tspan
         id="tspan39"
         style="font-style:normal;font-variant:normal;font-weight:normal;font-stretch:normal;font-size:16.9296px;font-family:times;-inkscape-font-specification:'times, Normal';font-variant-ligatures:normal;font-variant-caps:normal;font-variant-numeric:normal;font-variant-east-asian:normal;fill:#000000;stroke-width:0.453473"
         x="74.86364"
         y="46.407455">S</tspan></text><text
       xml:space="preserve"
       style="font-style:normal;font-variant:normal;font-weight:normal;font-stretch:normal;font-size:16.9296px;font-family:'Times New Roman';-inkscape-font-specification:'Times New Roman, Normal';font-variant-ligatures:normal;font-variant-caps:normal;font-variant-numeric:normal;font-variant-east-asian:normal;text-align:start;writing-mode:lr-tb;direction:ltr;text-anchor:start;display:inline;fill:#000000;fill-opacity:1;fill-rule:nonzero;stroke-width:0.453473"
       x="120.89677"
       y="43.958897"
       id="text40"><tspan
         id="tspan40"
         style="font-style:normal;font-variant:normal;font-weight:normal;font-stretch:normal;font-size:16.9296px;font-family:'Times New Roman';-inkscape-font-specification:'Times New Roman, Normal';font-variant-ligatures:normal;font-variant-caps:normal;font-variant-numeric:normal;font-variant-east-asian:normal;fill:#000000;stroke-width:0.453473"
         x="120.89677"
         y="43.958897">T</tspan></text><text
       xml:space="preserve"
       style="font-style:normal;font-variant:normal;font-weight:normal;font-stretch:normal;font-size:16.9296px;font-family:'Times New Roman';-inkscape-font-specification:'Times New Roman, Normal';font-variant-ligatures:normal;font-variant-caps:normal;font-variant-numeric:normal;font-variant-east-asian:normal;text-align:start;writing-mode:lr-tb;direction:ltr;text-anchor:start;display:inline;fill:#28220b;fill-opacity:1;fill-rule:nonzero;stroke-width:0.453473"
       x="61.641312"
       y="79.218323"
       id="text41"><tspan
         id="tspan41"
         style="font-style:normal;font-variant:normal;font-weight:normal;font-stretch:normal;font-size:16.9296px;font-family:'Times New Roman';-inkscape-font-specification:'Times New Roman, Normal';font-variant-ligatures:normal;font-variant-caps:normal;font-variant-numeric:normal;font-variant-east-asian:normal;fill:#28220b;stroke-width:0.453473"
         x="61.641312"
         y="79.218323">E</tspan></text><text
       xml:space="preserve"
       style="font-style:normal;font-variant:normal;font-weight:normal;font-stretch:normal;font-size:16.9296px;font-family:'Times New Roman';-inkscape-font-specification:'Times New Roman, Normal';font-variant-ligatures:normal;font-variant-caps:normal;font-variant-numeric:normal;font-variant-east-asian:normal;text-align:start;writing-mode:lr-tb;direction:ltr;text-anchor:start;display:inline;fill:#000000;fill-opacity:1;fill-rule:nonzero;stroke-width:0.453473"
       x="94.941879"
       y="67.95488"
       id="text42"><tspan
         id="tspan42"
         style="font-style:normal;font-variant:normal;font-weight:normal;font-stretch:normal;font-size:16.9296px;font-family:'Times New Roman';-inkscape-font-specification:'Times New Roman, Normal';font-variant-ligatures:normal;font-variant-caps:normal;font-variant-numeric:normal;font-variant-east-asian:normal;fill:#000000;stroke-width:0.453473"
         x="94.941879"
         y="67.95488">A</tspan></text><text
       xml:space="preserve"
       style="font-style:normal;font-variant:normal;font-weight:normal;font-stretch:normal;font-size:16.9296px;font-family:'Times New Roman';-inkscape-font-specification:'Times New Roman, Normal';font-variant-ligatures:normal;font-variant-caps:normal;font-variant-numeric:normal;font-variant-east-asian:normal;text-align:start;writing-mode:lr-tb;direction:ltr;text-anchor:start;display:inline;fill:#000000;fill-opacity:1;fill-rule:nonzero;stroke-width:0.453473"
       x="128.58727"
       y="79.218323"
       id="text43"><tspan
         id="tspan43"
         style="font-style:normal;font-variant:normal;font-weight:normal;font-stretch:normal;font-size:16.9296px;font-family:'Times New Roman';-inkscape-font-specification:'Times New Roman, Normal';font-variant-ligatures:normal;font-variant-caps:normal;font-variant-numeric:normal;font-variant-east-asian:normal;fill:#000000;stroke-width:0.453473"
         x="128.58727"
         y="79.218323">M</tspan></text></g></svg>
